<svg version="1.1" id="Layer_1" xmlns="http://www.w3.org/2000/svg" xmlns:xlink="http://www.w3.org/1999/xlink" x="0px" y="0px"
	 width="100%" viewBox="0 0 1080 1080" enable-background="new 0 0 1080 1080" xml:space="preserve">
<path fill="#FFFFFF" opacity="1.000000" stroke="none" 
	d="
M1002.000000,1081.000000 
	C668.000000,1081.000000 334.500000,1081.000000 1.000000,1081.000000 
	C1.000000,721.000000 1.000000,361.000000 1.000000,1.000000 
	C361.000000,1.000000 721.000000,1.000000 1081.000000,1.000000 
	C1081.000000,361.000000 1081.000000,721.000000 1081.000000,1081.000000 
	C1054.833374,1081.000000 1028.666626,1081.000000 1002.000000,1081.000000 
M202.499939,618.563293 
	C219.482269,618.561646 236.464905,618.620483 253.446838,618.537964 
	C265.531372,618.479309 272.280396,612.104248 272.354980,600.186523 
	C272.521759,573.548767 272.480164,546.908752 272.282349,520.271423 
	C272.264618,517.886902 271.083191,514.950195 269.438446,513.229309 
	C258.627350,501.917511 247.674484,490.730652 236.425323,479.857452 
	C234.296616,477.799927 230.655609,476.353882 227.675552,476.287811 
	C210.700760,475.911499 193.714798,476.003967 176.732651,476.007690 
	C165.614395,476.010132 158.008286,483.647003 158.002228,494.769806 
	C157.983170,529.733215 157.981339,564.696594 158.002869,599.659973 
	C158.009979,611.212219 165.018082,618.379456 176.526367,618.533447 
	C184.849518,618.644836 193.175293,618.559937 202.499939,618.563293 
M657.348633,565.052795 
	C660.627930,565.052795 663.907227,565.052795 667.915100,565.052795 
	C667.915100,552.288086 667.915100,539.903931 667.915100,527.519775 
	C673.835876,538.969971 678.891479,550.440613 683.755615,561.991821 
	C684.968323,564.871704 686.928467,565.381836 689.669556,565.277344 
	C692.140381,565.183228 693.770752,564.970703 694.901062,562.022705 
	C698.094177,553.694824 701.885071,545.594971 705.481750,537.423523 
	C706.997620,533.979431 708.617432,530.581177 710.190002,527.162048 
	C710.622803,527.292114 711.055664,527.422241 711.488525,527.552307 
	C711.488525,539.963562 711.488525,552.374817 711.488525,564.891968 
	C715.080566,564.891968 718.160278,564.891968 721.233276,564.891968 
	C721.233276,542.516785 721.233276,520.457886 721.233276,498.045410 
	C717.398865,498.831207 713.047791,495.890564 710.867615,501.045624 
	C708.296570,507.124786 705.825989,513.247498 703.182129,519.294617 
	C698.823364,529.263794 694.360474,539.187317 689.654907,549.774780 
	C688.599670,547.846191 687.811462,546.624634 687.231140,545.311218 
	C681.284241,531.852356 675.397644,518.366760 669.438110,504.913452 
	C665.985535,497.119415 665.535339,496.942902 656.674683,498.770508 
	C656.674683,520.676025 656.674683,542.607666 657.348633,565.052795 
M550.828125,582.316650 
	C557.126709,577.812744 559.916138,571.726990 559.737061,563.959900 
	C559.503174,553.816528 559.657898,543.664124 559.649170,533.515625 
	C559.644653,528.238464 559.648376,522.961365 559.648376,517.486572 
	C555.636108,517.486572 552.247925,517.486572 548.735657,517.486572 
	C548.456787,519.448730 548.218201,521.126770 547.938538,523.094543 
	C539.437988,514.855896 527.510315,513.867920 519.748291,520.427673 
	C510.857452,527.941467 508.245087,544.573669 514.738525,553.953613 
	C517.821045,558.406433 522.003479,561.726379 527.468628,562.963745 
	C535.281250,564.732605 542.052246,562.724609 547.958496,556.678223 
	C548.286255,560.213684 548.441406,563.344238 547.792419,566.298035 
	C546.011047,574.405579 543.621948,576.521973 535.564880,576.062317 
	C529.759827,575.731140 524.017456,574.301086 518.198608,573.353210 
	C515.912659,580.840454 515.815552,581.469788 519.343018,582.708252 
	C529.576172,586.300842 539.910645,587.445557 550.828125,582.316650 
M888.435303,497.014404 
	C887.875061,496.350128 887.344177,495.143463 886.749573,495.111237 
	C883.348389,494.926819 879.932068,495.021637 876.550903,495.021637 
	C876.550903,518.710083 876.550903,541.626160 876.550903,564.740601 
	C880.600281,564.740601 884.333679,564.740601 888.247253,564.740601 
	C888.364868,563.684265 888.531555,562.877502 888.532593,562.070496 
	C888.543091,553.742981 888.403564,545.413208 888.555969,537.088623 
	C888.682678,530.166443 893.875671,525.030457 900.370300,525.015076 
	C905.930359,525.001892 909.229919,529.419922 909.261475,536.922424 
	C909.266357,538.088257 909.265991,539.254150 909.266052,540.419983 
	C909.266418,548.522583 909.266235,556.625122 909.266235,564.619141 
	C913.739136,564.619141 917.468506,564.619141 922.014099,564.619141 
	C921.480408,552.311768 921.396301,540.368286 920.256470,528.526367 
	C919.728027,523.036377 916.447510,518.550415 910.331909,516.808655 
	C902.266602,514.511658 895.469910,516.797302 888.456238,522.695251 
	C888.456238,513.741272 888.456238,505.832275 888.435303,497.014404 
M589.007507,566.327942 
	C595.530273,566.994141 601.234558,565.213379 605.887207,559.516418 
	C606.310120,562.057434 606.547607,563.484192 606.796021,564.976746 
	C610.768738,564.976746 614.508362,564.976746 618.282227,564.976746 
	C618.282227,548.923035 618.282227,533.207092 618.282227,517.490234 
	C614.166626,517.490234 610.431824,517.490234 606.774658,517.490234 
	C606.426147,519.205017 606.150208,520.562805 605.788513,522.342773 
	C604.835083,521.653259 604.214539,521.376221 603.835938,520.904968 
	C598.486633,514.246765 585.150269,514.641663 578.448608,520.690125 
	C570.136536,528.192017 569.065674,538.142029 570.712708,548.178101 
	C572.280273,557.729736 578.300964,564.174011 589.007507,566.327942 
M740.742310,521.205688 
	C733.019043,528.685486 732.211426,538.291565 733.615967,547.949158 
	C734.697388,555.384766 738.858398,561.543396 746.330505,564.496582 
	C754.591614,567.761719 762.159729,566.664429 768.798096,559.665955 
	C769.225952,561.812317 769.529236,563.333740 769.833740,564.861450 
	C773.753235,564.861450 777.373718,564.861450 781.281006,564.861450 
	C781.281006,548.934326 781.281006,533.210327 781.281006,517.324829 
	C777.231628,517.324829 773.492859,517.324829 769.820862,517.324829 
	C769.391418,519.061646 769.033203,520.510620 768.622559,522.171387 
	C758.868103,514.151306 750.668823,513.804504 740.742310,521.205688 
M465.857727,523.367920 
	C456.417206,533.861755 456.653229,550.537659 466.707031,560.192932 
	C475.191437,568.341064 485.303131,567.654114 495.511078,564.339966 
	C503.346863,561.796143 503.872864,559.540894 498.789734,552.835999 
	C480.435791,560.491516 472.342316,557.643372 471.158722,542.453125 
	C481.913116,542.453125 492.636841,542.453125 503.263245,542.453125 
	C504.442322,531.471741 499.977386,522.323730 491.929504,518.404785 
	C483.194061,514.151001 473.414520,515.855286 465.857727,523.367920 
M453.664734,556.981812 
	C452.141785,556.408752 450.627075,555.366821 449.094482,555.339783 
	C440.162109,555.182129 431.225525,555.262573 421.596069,555.262573 
	C421.596069,536.029968 421.596069,517.351013 421.596069,498.718323 
	C417.165894,498.718323 413.448639,498.718323 409.798096,498.718323 
	C409.798096,521.158264 409.798096,543.189880 409.798096,565.180237 
	C424.606079,565.180237 438.996490,565.180237 453.705658,565.180237 
	C453.705658,562.485046 453.705658,560.170227 453.664734,556.981812 
M803.432007,503.079712 
	C794.238586,504.081329 798.319641,511.657501 796.908997,516.762207 
	C793.774292,516.950195 790.719543,517.133423 787.538940,517.324158 
	C787.538940,520.314880 787.538940,522.904053 787.538940,525.788025 
	C790.828857,525.983521 793.888428,526.165344 796.796692,526.338135 
	C797.019226,527.046875 797.200684,527.357971 797.202637,527.670166 
	C797.249939,535.157349 797.275269,542.644653 797.310120,550.131897 
	C797.357422,560.300415 803.144409,566.016479 813.410645,566.041382 
	C821.936646,566.062012 822.571533,565.260620 821.033142,556.420593 
	C812.712402,557.923584 809.502625,556.354736 808.800354,548.900635 
	C808.105286,541.523438 808.648376,534.029602 808.648376,525.947754 
	C813.111755,525.947754 817.157288,525.947754 821.254395,525.947754 
	C821.254395,522.696411 821.254395,520.096802 821.254395,516.902222 
	C816.941345,516.902222 812.883301,516.902222 808.638916,516.902222 
	C808.638916,511.446075 808.638916,506.580841 808.638916,501.531891 
	C806.993896,502.069824 805.588501,502.529449 803.432007,503.079712 
M842.338989,517.521790 
	C831.758240,521.947815 827.490601,530.058533 827.182983,541.341858 
	C826.616760,562.112305 846.456116,571.048950 863.261841,563.602051 
	C870.385071,560.445557 870.617126,558.358398 865.247192,552.163147 
	C855.317383,558.999146 848.467407,558.080505 843.134033,553.017090 
	C838.099243,548.237183 837.890503,535.478210 842.909912,529.491333 
	C844.661743,527.401794 847.979797,525.261169 850.441772,525.413879 
	C855.645813,525.736755 860.757019,527.555237 866.241028,528.838623 
	C870.681274,521.256653 869.721558,519.704468 861.067200,517.585510 
	C855.374634,516.191711 849.088806,517.221313 842.338989,517.521790 
M642.640869,552.477539 
	C642.640869,533.446594 642.640869,514.415649 642.640869,495.378998 
	C638.115784,495.378998 634.514587,495.378998 630.611694,495.378998 
	C630.611694,518.649841 630.611694,541.666504 630.611694,564.844727 
	C634.704468,564.844727 638.543823,564.844727 642.641846,564.844727 
	C642.641846,560.759155 642.641846,557.112305 642.640869,552.477539 
M340.401398,562.500000 
	C340.401764,584.139038 340.376709,605.778198 340.471008,627.416809 
	C340.476196,628.609314 341.472870,629.797546 342.008026,630.987732 
	C342.589050,629.843811 343.259247,628.733765 343.712921,627.541382 
	C343.934296,626.959595 343.752625,626.224304 343.752625,625.558472 
	C343.752655,568.964050 343.752686,512.369690 343.751831,455.775269 
	C343.751801,454.776611 343.979767,453.694489 343.668030,452.802765 
	C343.354889,451.906952 342.499207,451.200775 341.881256,450.411438 
	C341.394562,451.154022 340.634094,451.845490 340.483765,452.650848 
	C340.243378,453.938812 340.402161,455.302368 340.402130,456.633942 
	C340.401306,491.589294 340.401764,526.544678 340.401398,562.500000 
z"/>
<path fill="#4371E6" opacity="1.000000" stroke="none" 
	d="
M201.999924,618.562927 
	C193.175293,618.559937 184.849518,618.644836 176.526367,618.533447 
	C165.018082,618.379456 158.009979,611.212219 158.002869,599.659973 
	C157.981339,564.696594 157.983170,529.733215 158.002228,494.769806 
	C158.008286,483.647003 165.614395,476.010132 176.732651,476.007690 
	C193.714798,476.003967 210.700760,475.911499 227.675552,476.287811 
	C230.655609,476.353882 234.296616,477.799927 236.425323,479.857452 
	C247.674484,490.730652 258.627350,501.917511 269.438446,513.229309 
	C271.083191,514.950195 272.264618,517.886902 272.282349,520.271423 
	C272.480164,546.908752 272.521759,573.548767 272.354980,600.186523 
	C272.280396,612.104248 265.531372,618.479309 253.446838,618.537964 
	C236.464905,618.620483 219.482269,618.561646 201.999924,618.562927 
M209.039444,547.927368 
	C209.013092,547.589417 208.986725,547.251526 208.582077,546.235291 
	C205.981796,545.563660 203.381531,544.891968 200.987701,544.273621 
	C200.987701,533.590088 200.987701,523.052917 200.987701,512.591492 
	C210.954376,511.282166 211.297974,511.367706 215.135483,515.939270 
	C213.671860,519.250305 212.208237,522.561279 210.208710,526.296143 
	C207.842117,531.649841 208.353180,534.477783 212.020065,536.318665 
	C215.992538,538.312927 220.189346,536.955322 222.513947,532.733215 
	C222.369965,531.772705 222.225983,530.812256 222.162720,529.415344 
	C222.162720,529.415344 222.047150,528.986938 222.079651,528.236389 
	C220.287521,524.324341 218.495392,520.412354 217.130432,517.432800 
	C217.753143,514.744690 219.148956,512.144714 218.395386,511.109955 
	C217.441193,509.799744 214.764618,509.390839 212.785431,509.254944 
	C208.888504,508.987427 204.960251,509.176086 201.290924,509.176086 
	C200.657333,506.709351 200.207825,504.959259 199.758316,503.209198 
	C199.278214,503.216248 198.798096,503.223297 198.317978,503.230347 
	C197.812302,505.112122 197.306625,506.993896 196.718399,509.182800 
	C192.104050,509.182800 187.645477,509.139160 183.188263,509.197998 
	C180.175980,509.237762 177.586670,511.017517 179.442291,513.700684 
	C181.545303,516.741638 179.935013,518.435486 178.963760,520.689514 
	C177.919739,523.112244 176.914246,525.551697 175.445450,528.634216 
	C173.884430,531.639282 174.329300,534.828430 177.380341,535.765381 
	C180.194733,536.629761 183.776428,536.197876 186.607178,535.183960 
	C187.662582,534.805908 187.548584,531.163147 187.913742,528.269470 
	C186.103973,524.227295 184.294189,520.185181 182.438721,516.040955 
	C185.096420,510.739807 190.252823,512.110229 194.881348,512.240051 
	C195.737320,512.263977 197.267105,513.685547 197.280182,514.481812 
	C197.445084,524.513306 197.388474,534.548462 197.388474,543.696533 
	C194.011047,545.014282 191.513931,545.988525 188.985260,547.451355 
	C188.961182,547.775330 188.945969,548.099731 188.150558,548.689026 
	C187.111801,549.006531 186.073029,549.323975 185.034256,549.641418 
	C185.121521,549.956726 185.208786,550.272095 185.296051,550.587402 
	C194.473648,550.587402 203.651245,550.587402 212.828842,550.587402 
	C212.878540,550.245972 212.928253,549.904602 212.977966,549.563171 
	C211.671463,549.186584 210.364960,548.809998 209.039444,547.927368 
M214.128632,567.674377 
	C213.495651,571.048279 215.018921,571.986938 218.258698,571.944519 
	C229.587433,571.796082 240.920517,571.789673 252.249359,571.933350 
	C256.903107,571.992371 257.117523,569.824890 255.780624,566.084473 
	C244.509918,566.084473 233.358200,566.037842 222.207413,566.119202 
	C219.610260,566.138123 217.016296,566.592224 214.128632,567.674377 
M246.455933,579.932617 
	C237.329941,579.932678 228.203354,579.877197 219.078415,579.975525 
	C217.042053,579.997437 214.134232,578.804993 214.032776,582.785217 
	C213.933502,586.679810 216.677261,585.859192 218.846878,585.867676 
	C229.797897,585.910706 240.751175,585.766724 251.699402,585.946411 
	C256.094910,586.018555 257.450317,584.488708 255.787933,579.932556 
	C253.010452,579.932556 250.222504,579.932556 246.455933,579.932617 
M245.166046,505.336182 
	C242.392593,502.125549 239.619125,498.914917 236.845673,495.704285 
	C236.290924,496.084229 235.736191,496.464172 235.181442,496.844116 
	C235.181442,501.092377 234.758423,505.404694 235.387543,509.557617 
	C235.642761,511.242340 238.033127,513.614807 239.724640,513.870544 
	C243.872223,514.497498 248.178391,514.075439 252.420761,514.075439 
	C252.726715,513.598389 253.032684,513.121277 253.338638,512.644226 
	C250.780731,510.375488 248.222809,508.106781 245.166046,505.336182 
M236.849960,600.060730 
	C243.232193,600.060730 249.614441,600.060730 255.996674,600.060730 
	C256.388519,599.563354 256.780396,599.065979 257.172241,598.568604 
	C256.066559,597.127197 255.031830,594.510925 253.843445,594.439148 
	C247.160553,594.035583 240.440643,594.244446 233.733368,594.244446 
	C233.351730,594.763855 232.970093,595.283325 232.588455,595.802734 
	C233.707138,597.219666 234.825821,598.636597 236.849960,600.060730 
z"/>
<path fill="#4870D8" opacity="1.000000" stroke="none" 
	d="
M657.011658,564.796021 
	C656.674683,542.607666 656.674683,520.676025 656.674683,498.770508 
	C665.535339,496.942902 665.985535,497.119415 669.438110,504.913452 
	C675.397644,518.366760 681.284241,531.852356 687.231140,545.311218 
	C687.811462,546.624634 688.599670,547.846191 689.654907,549.774780 
	C694.360474,539.187317 698.823364,529.263794 703.182129,519.294617 
	C705.825989,513.247498 708.296570,507.124786 710.867615,501.045624 
	C713.047791,495.890564 717.398865,498.831207 721.233276,498.045410 
	C721.233276,520.457886 721.233276,542.516785 721.233276,564.891968 
	C718.160278,564.891968 715.080566,564.891968 711.488525,564.891968 
	C711.488525,552.374817 711.488525,539.963562 711.488525,527.552307 
	C711.055664,527.422241 710.622803,527.292114 710.190002,527.162048 
	C708.617432,530.581177 706.997620,533.979431 705.481750,537.423523 
	C701.885071,545.594971 698.094177,553.694824 694.901062,562.022705 
	C693.770752,564.970703 692.140381,565.183228 689.669556,565.277344 
	C686.928467,565.381836 684.968323,564.871704 683.755615,561.991821 
	C678.891479,550.440613 673.835876,538.969971 667.915100,527.519775 
	C667.915100,539.903931 667.915100,552.288086 667.915100,565.052795 
	C663.907227,565.052795 660.627930,565.052795 657.011658,564.796021 
z"/>
<path fill="#4870D8" opacity="1.000000" stroke="none" 
	d="
M550.501770,582.479492 
	C539.910645,587.445557 529.576172,586.300842 519.343018,582.708252 
	C515.815552,581.469788 515.912659,580.840454 518.198608,573.353210 
	C524.017456,574.301086 529.759827,575.731140 535.564880,576.062317 
	C543.621948,576.521973 546.011047,574.405579 547.792419,566.298035 
	C548.441406,563.344238 548.286255,560.213684 547.958496,556.678223 
	C542.052246,562.724609 535.281250,564.732605 527.468628,562.963745 
	C522.003479,561.726379 517.821045,558.406433 514.738525,553.953613 
	C508.245087,544.573669 510.857452,527.941467 519.748291,520.427673 
	C527.510315,513.867920 539.437988,514.855896 547.938538,523.094543 
	C548.218201,521.126770 548.456787,519.448730 548.735657,517.486572 
	C552.247925,517.486572 555.636108,517.486572 559.648376,517.486572 
	C559.648376,522.961365 559.644653,528.238464 559.649170,533.515625 
	C559.657898,543.664124 559.503174,553.816528 559.737061,563.959900 
	C559.916138,571.726990 557.126709,577.812744 550.501770,582.479492 
M525.960938,549.298096 
	C530.687988,554.534790 535.729553,555.557800 541.944519,552.541626 
	C545.747986,550.695740 549.190735,543.110840 548.230164,538.314392 
	C547.009460,532.218994 544.952271,526.681702 537.736816,525.468323 
	C532.871033,524.650024 528.777039,526.197510 526.070679,530.294312 
	C522.166016,536.205139 522.708191,542.456848 525.960938,549.298096 
z"/>
<path fill="#476FD7" opacity="1.000000" stroke="none" 
	d="
M888.445801,497.468872 
	C888.456238,505.832275 888.456238,513.741272 888.456238,522.695251 
	C895.469910,516.797302 902.266602,514.511658 910.331909,516.808655 
	C916.447510,518.550415 919.728027,523.036377 920.256470,528.526367 
	C921.396301,540.368286 921.480408,552.311768 922.014099,564.619141 
	C917.468506,564.619141 913.739136,564.619141 909.266235,564.619141 
	C909.266235,556.625122 909.266418,548.522583 909.266052,540.419983 
	C909.265991,539.254150 909.266357,538.088257 909.261475,536.922424 
	C909.229919,529.419922 905.930359,525.001892 900.370300,525.015076 
	C893.875671,525.030457 888.682678,530.166443 888.555969,537.088623 
	C888.403564,545.413208 888.543091,553.742981 888.532593,562.070496 
	C888.531555,562.877502 888.364868,563.684265 888.247253,564.740601 
	C884.333679,564.740601 880.600281,564.740601 876.550903,564.740601 
	C876.550903,541.626160 876.550903,518.710083 876.550903,495.021637 
	C879.932068,495.021637 883.348389,494.926819 886.749573,495.111237 
	C887.344177,495.143463 887.875061,496.350128 888.445801,497.468872 
z"/>
<path fill="#4870D8" opacity="1.000000" stroke="none" 
	d="
M588.597961,566.313110 
	C578.300964,564.174011 572.280273,557.729736 570.712708,548.178101 
	C569.065674,538.142029 570.136536,528.192017 578.448608,520.690125 
	C585.150269,514.641663 598.486633,514.246765 603.835938,520.904968 
	C604.214539,521.376221 604.835083,521.653259 605.788513,522.342773 
	C606.150208,520.562805 606.426147,519.205017 606.774658,517.490234 
	C610.431824,517.490234 614.166626,517.490234 618.282227,517.490234 
	C618.282227,533.207092 618.282227,548.923035 618.282227,564.976746 
	C614.508362,564.976746 610.768738,564.976746 606.796021,564.976746 
	C606.547607,563.484192 606.310120,562.057434 605.887207,559.516418 
	C601.234558,565.213379 595.530273,566.994141 588.597961,566.313110 
M605.925781,535.298401 
	C603.623230,528.470825 600.032288,525.257874 594.621399,525.183716 
	C589.637695,525.115417 584.304688,528.878967 583.174011,534.522644 
	C582.312683,538.822083 582.444397,543.493591 583.056580,547.870605 
	C583.790894,553.121338 588.148071,556.554932 593.335083,557.133423 
	C598.212585,557.677429 603.108337,555.394470 604.743530,550.234070 
	C606.142822,545.817749 605.793701,540.847351 605.925781,535.298401 
z"/>
<path fill="#476FD7" opacity="1.000000" stroke="none" 
	d="
M741.000000,520.948608 
	C750.668823,513.804504 758.868103,514.151306 768.622559,522.171387 
	C769.033203,520.510620 769.391418,519.061646 769.820862,517.324829 
	C773.492859,517.324829 777.231628,517.324829 781.281006,517.324829 
	C781.281006,533.210327 781.281006,548.934326 781.281006,564.861450 
	C777.373718,564.861450 773.753235,564.861450 769.833740,564.861450 
	C769.529236,563.333740 769.225952,561.812317 768.798096,559.665955 
	C762.159729,566.664429 754.591614,567.761719 746.330505,564.496582 
	C738.858398,561.543396 734.697388,555.384766 733.615967,547.949158 
	C732.211426,538.291565 733.019043,528.685486 741.000000,520.948608 
M746.404297,533.214478 
	C746.328247,538.411499 745.674500,543.683533 746.336670,548.784729 
	C747.015076,554.011230 751.441284,556.303711 756.254578,556.955627 
	C761.151306,557.618835 765.437988,555.487732 767.200134,550.975647 
	C768.701904,547.130371 769.110413,542.698303 769.219116,538.505493 
	C769.388794,531.960083 765.482971,526.852722 759.992188,525.384583 
	C754.912598,524.026428 750.333008,526.471497 746.404297,533.214478 
z"/>
<path fill="#4870D8" opacity="1.000000" stroke="none" 
	d="
M466.111389,523.113892 
	C473.414520,515.855286 483.194061,514.151001 491.929504,518.404785 
	C499.977386,522.323730 504.442322,531.471741 503.263245,542.453125 
	C492.636841,542.453125 481.913116,542.453125 471.158722,542.453125 
	C472.342316,557.643372 480.435791,560.491516 498.789734,552.835999 
	C503.872864,559.540894 503.346863,561.796143 495.511078,564.339966 
	C485.303131,567.654114 475.191437,568.341064 466.707031,560.192932 
	C456.653229,550.537659 456.417206,533.861755 466.111389,523.113892 
M471.781769,534.880432 
	C472.388245,535.323242 472.989044,536.141663 473.602112,536.150940 
	C479.874146,536.245605 486.148163,536.208862 492.409271,536.208862 
	C492.494965,530.412231 489.364777,526.100525 484.815033,525.311462 
	C478.732697,524.256592 474.205963,527.262939 471.781769,534.880432 
z"/>
<path fill="#4870D8" opacity="1.000000" stroke="none" 
	d="
M453.685181,557.418579 
	C453.705658,560.170227 453.705658,562.485046 453.705658,565.180237 
	C438.996490,565.180237 424.606079,565.180237 409.798096,565.180237 
	C409.798096,543.189880 409.798096,521.158264 409.798096,498.718323 
	C413.448639,498.718323 417.165894,498.718323 421.596069,498.718323 
	C421.596069,517.351013 421.596069,536.029968 421.596069,555.262573 
	C431.225525,555.262573 440.162109,555.182129 449.094482,555.339783 
	C450.627075,555.366821 452.141785,556.408752 453.685181,557.418579 
z"/>
<path fill="#476FD7" opacity="1.000000" stroke="none" 
	d="
M803.807495,503.034363 
	C805.588501,502.529449 806.993896,502.069824 808.638916,501.531891 
	C808.638916,506.580841 808.638916,511.446075 808.638916,516.902222 
	C812.883301,516.902222 816.941345,516.902222 821.254395,516.902222 
	C821.254395,520.096802 821.254395,522.696411 821.254395,525.947754 
	C817.157288,525.947754 813.111755,525.947754 808.648376,525.947754 
	C808.648376,534.029602 808.105286,541.523438 808.800354,548.900635 
	C809.502625,556.354736 812.712402,557.923584 821.033142,556.420593 
	C822.571533,565.260620 821.936646,566.062012 813.410645,566.041382 
	C803.144409,566.016479 797.357422,560.300415 797.310120,550.131897 
	C797.275269,542.644653 797.249939,535.157349 797.202637,527.670166 
	C797.200684,527.357971 797.019226,527.046875 796.796692,526.338135 
	C793.888428,526.165344 790.828857,525.983521 787.538940,525.788025 
	C787.538940,522.904053 787.538940,520.314880 787.538940,517.324158 
	C790.719543,517.133423 793.774292,516.950195 796.908997,516.762207 
	C798.319641,511.657501 794.238586,504.081329 803.807495,503.034363 
z"/>
<path fill="#476FD7" opacity="1.000000" stroke="none" 
	d="
M842.703796,517.343750 
	C849.088806,517.221313 855.374634,516.191711 861.067200,517.585510 
	C869.721558,519.704468 870.681274,521.256653 866.241028,528.838623 
	C860.757019,527.555237 855.645813,525.736755 850.441772,525.413879 
	C847.979797,525.261169 844.661743,527.401794 842.909912,529.491333 
	C837.890503,535.478210 838.099243,548.237183 843.134033,553.017090 
	C848.467407,558.080505 855.317383,558.999146 865.247192,552.163147 
	C870.617126,558.358398 870.385071,560.445557 863.261841,563.602051 
	C846.456116,571.048950 826.616760,562.112305 827.182983,541.341858 
	C827.490601,530.058533 831.758240,521.947815 842.703796,517.343750 
z"/>
<path fill="#4870D8" opacity="1.000000" stroke="none" 
	d="
M642.641357,552.971497 
	C642.641846,557.112305 642.641846,560.759155 642.641846,564.844727 
	C638.543823,564.844727 634.704468,564.844727 630.611694,564.844727 
	C630.611694,541.666504 630.611694,518.649841 630.611694,495.378998 
	C634.514587,495.378998 638.115784,495.378998 642.640869,495.378998 
	C642.640869,514.415649 642.640869,533.446594 642.641357,552.971497 
z"/>
<path fill="#527DEC" opacity="1.000000" stroke="none" 
	d="
M340.401703,562.000000 
	C340.401764,526.544678 340.401306,491.589294 340.402130,456.633942 
	C340.402161,455.302368 340.243378,453.938812 340.483765,452.650848 
	C340.634094,451.845490 341.394562,451.154022 341.881256,450.411438 
	C342.499207,451.200775 343.354889,451.906952 343.668030,452.802765 
	C343.979767,453.694489 343.751801,454.776611 343.751831,455.775269 
	C343.752686,512.369690 343.752655,568.964050 343.752625,625.558472 
	C343.752625,626.224304 343.934296,626.959595 343.712921,627.541382 
	C343.259247,628.733765 342.589050,629.843811 342.008026,630.987732 
	C341.472870,629.797546 340.476196,628.609314 340.471008,627.416809 
	C340.376709,605.778198 340.401764,584.139038 340.401703,562.000000 
z"/>
<path fill="#DCE5FA" opacity="1.000000" stroke="none" 
	d="
M175.891937,527.983826 
	C176.914246,525.551697 177.919739,523.112244 178.963760,520.689514 
	C179.935013,518.435486 181.545303,516.741638 179.442291,513.700684 
	C177.586670,511.017517 180.175980,509.237762 183.188263,509.197998 
	C187.645477,509.139160 192.104050,509.182800 196.718399,509.182800 
	C197.306625,506.993896 197.812302,505.112122 198.317978,503.230347 
	C198.798096,503.223297 199.278214,503.216248 199.758316,503.209198 
	C200.207825,504.959259 200.657333,506.709351 201.290924,509.176086 
	C204.960251,509.176086 208.888504,508.987427 212.785431,509.254944 
	C214.764618,509.390839 217.441193,509.799744 218.395386,511.109955 
	C219.148956,512.144714 217.753143,514.744690 217.130432,517.432800 
	C218.495392,520.412354 220.287521,524.324341 221.758804,528.619324 
	C221.032135,529.012512 220.626312,529.022705 219.996613,528.753357 
	C218.671875,526.367493 217.571045,524.261230 216.208984,521.655151 
	C214.983002,523.452271 214.104584,524.739990 212.812210,526.010010 
	C211.847046,525.952332 211.295807,525.912292 210.744598,525.872253 
	C212.208237,522.561279 213.671860,519.250305 215.133148,515.938354 
	C211.297974,511.367706 210.954376,511.282166 200.987701,512.591492 
	C200.987701,523.052917 200.987701,533.590088 200.987701,544.273621 
	C203.381531,544.891968 205.981796,545.563660 208.313995,546.675171 
	C201.702896,547.064270 195.359848,547.013550 189.016815,546.962769 
	C191.513931,545.988525 194.011047,545.014282 197.388474,543.696533 
	C197.388474,534.548462 197.445084,524.513306 197.280182,514.481812 
	C197.267105,513.685547 195.737320,512.263977 194.881348,512.240051 
	C190.252823,512.110229 185.096420,510.739807 182.438721,516.040955 
	C184.294189,520.185181 186.103973,524.227295 187.608215,528.639404 
	C186.859238,529.007568 186.415756,529.005737 185.728241,528.765259 
	C184.404999,526.388611 183.325790,524.250610 181.966110,521.557007 
	C180.430450,524.153809 179.285233,526.090332 177.765564,528.015991 
	C176.891388,527.997986 176.391663,527.990906 175.891937,527.983826 
z"/>
<path fill="#EAEFFC" opacity="1.000000" stroke="none" 
	d="
M214.274750,567.260254 
	C217.016296,566.592224 219.610260,566.138123 222.207413,566.119202 
	C233.358200,566.037842 244.509918,566.084473 255.780624,566.084473 
	C257.117523,569.824890 256.903107,571.992371 252.249359,571.933350 
	C240.920517,571.789673 229.587433,571.796082 218.258698,571.944519 
	C215.018921,571.986938 213.495651,571.048279 214.274750,567.260254 
z"/>
<path fill="#EAEFFC" opacity="1.000000" stroke="none" 
	d="
M246.945236,579.932617 
	C250.222504,579.932556 253.010452,579.932556 255.787933,579.932556 
	C257.450317,584.488708 256.094910,586.018555 251.699402,585.946411 
	C240.751175,585.766724 229.797897,585.910706 218.846878,585.867676 
	C216.677261,585.859192 213.933502,586.679810 214.032776,582.785217 
	C214.134232,578.804993 217.042053,579.997437 219.078415,579.975525 
	C228.203354,579.877197 237.329941,579.932678 246.945236,579.932617 
z"/>
<path fill="#FAFBFE" opacity="1.000000" stroke="none" 
	d="
M245.415466,505.587158 
	C248.222809,508.106781 250.780731,510.375488 253.338638,512.644226 
	C253.032684,513.121277 252.726715,513.598389 252.420761,514.075439 
	C248.178391,514.075439 243.872223,514.497498 239.724640,513.870544 
	C238.033127,513.614807 235.642761,511.242340 235.387543,509.557617 
	C234.758423,505.404694 235.181442,501.092377 235.181442,496.844116 
	C235.736191,496.464172 236.290924,496.084229 236.845673,495.704285 
	C239.619125,498.914917 242.392593,502.125549 245.415466,505.587158 
z"/>
<path fill="#EAEFFC" opacity="1.000000" stroke="none" 
	d="
M236.397232,600.057129 
	C234.825821,598.636597 233.707138,597.219666 232.588455,595.802734 
	C232.970093,595.283325 233.351730,594.763855 233.733368,594.244446 
	C240.440643,594.244446 247.160553,594.035583 253.843445,594.439148 
	C255.031830,594.510925 256.066559,597.127197 257.172241,598.568604 
	C256.780396,599.065979 256.388519,599.563354 255.996674,600.060730 
	C249.614441,600.060730 243.232193,600.060730 236.397232,600.057129 
z"/>
<path fill="#FAFBFE" opacity="1.000000" stroke="none" 
	d="
M220.220490,529.032959 
	C220.626312,529.022705 221.032135,529.012512 221.742554,528.994629 
	C222.047150,528.986938 222.162720,529.415344 222.060791,530.034668 
	C221.986359,531.461670 222.013855,532.269287 222.041351,533.076904 
	C220.189346,536.955322 215.992538,538.312927 212.020065,536.318665 
	C208.353180,534.477783 207.842117,531.649841 210.476654,526.084229 
	C211.295807,525.912292 211.847046,525.952332 212.733673,526.345337 
	C212.573959,527.797974 212.078827,528.897644 211.583694,529.997253 
	C211.811508,530.492920 212.039322,530.988586 212.267151,531.484253 
	C214.918259,530.667175 217.569382,529.850098 220.220490,529.032959 
z"/>
<path fill="#EAEFFC" opacity="1.000000" stroke="none" 
	d="
M185.972290,529.003906 
	C186.415756,529.005737 186.859238,529.007568 187.635254,529.009155 
	C187.548584,531.163147 187.662582,534.805908 186.607178,535.183960 
	C183.776428,536.197876 180.194733,536.629761 177.380341,535.765381 
	C174.329300,534.828430 173.884430,531.639282 175.668701,528.309021 
	C176.391663,527.990906 176.891388,527.997986 177.738922,528.412964 
	C180.626022,532.725403 183.284805,531.483093 185.972290,529.003906 
z"/>
<path fill="#FAFBFE" opacity="1.000000" stroke="none" 
	d="
M209.058472,548.433472 
	C210.364960,548.809998 211.671463,549.186584 212.977966,549.563171 
	C212.928253,549.904602 212.878540,550.245972 212.828842,550.587402 
	C203.651245,550.587402 194.473648,550.587402 185.296051,550.587402 
	C185.208786,550.272095 185.121521,549.956726 185.034256,549.641418 
	C186.073029,549.323975 187.111801,549.006531 188.998993,548.704468 
	C196.251099,548.624451 202.654785,548.528992 209.058472,548.433472 
z"/>
<path fill="#527DEC" opacity="1.000000" stroke="none" 
	d="
M209.048950,548.180420 
	C202.654785,548.528992 196.251099,548.624451 189.393539,548.572266 
	C188.945969,548.099731 188.961182,547.775330 189.001038,547.207031 
	C195.359848,547.013550 201.702896,547.064270 208.503143,547.014282 
	C208.986725,547.251526 209.013092,547.589417 209.048950,548.180420 
z"/>
<path fill="#DCE5FA" opacity="1.000000" stroke="none" 
	d="
M222.277649,532.905029 
	C222.013855,532.269287 221.986359,531.461670 222.020416,530.252930 
	C222.225983,530.812256 222.369965,531.772705 222.277649,532.905029 
z"/>
<path fill="#FAFBFE" opacity="1.000000" stroke="none" 
	d="
M525.695801,548.996277 
	C522.708191,542.456848 522.166016,536.205139 526.070679,530.294312 
	C528.777039,526.197510 532.871033,524.650024 537.736816,525.468323 
	C544.952271,526.681702 547.009460,532.218994 548.230164,538.314392 
	C549.190735,543.110840 545.747986,550.695740 541.944519,552.541626 
	C535.729553,555.557800 530.687988,554.534790 525.695801,548.996277 
z"/>
<path fill="#FAFBFE" opacity="1.000000" stroke="none" 
	d="
M606.071838,535.710205 
	C605.793701,540.847351 606.142822,545.817749 604.743530,550.234070 
	C603.108337,555.394470 598.212585,557.677429 593.335083,557.133423 
	C588.148071,556.554932 583.790894,553.121338 583.056580,547.870605 
	C582.444397,543.493591 582.312683,538.822083 583.174011,534.522644 
	C584.304688,528.878967 589.637695,525.115417 594.621399,525.183716 
	C600.032288,525.257874 603.623230,528.470825 606.071838,535.710205 
z"/>
<path fill="#FAFBFE" opacity="1.000000" stroke="none" 
	d="
M746.548462,532.849915 
	C750.333008,526.471497 754.912598,524.026428 759.992188,525.384583 
	C765.482971,526.852722 769.388794,531.960083 769.219116,538.505493 
	C769.110413,542.698303 768.701904,547.130371 767.200134,550.975647 
	C765.437988,555.487732 761.151306,557.618835 756.254578,556.955627 
	C751.441284,556.303711 747.015076,554.011230 746.336670,548.784729 
	C745.674500,543.683533 746.328247,538.411499 746.548462,532.849915 
z"/>
<path fill="#FAFBFE" opacity="1.000000" stroke="none" 
	d="
M471.750397,534.444702 
	C474.205963,527.262939 478.732697,524.256592 484.815033,525.311462 
	C489.364777,526.100525 492.494965,530.412231 492.409271,536.208862 
	C486.148163,536.208862 479.874146,536.245605 473.602112,536.150940 
	C472.989044,536.141663 472.388245,535.323242 471.750397,534.444702 
z"/>
<path fill="#527DEC" opacity="1.000000" stroke="none" 
	d="
M219.996613,528.753418 
	C217.569382,529.850098 214.918259,530.667175 212.267151,531.484253 
	C212.039322,530.988586 211.811508,530.492920 211.583694,529.997253 
	C212.078827,528.897644 212.573959,527.797974 213.147614,526.363037 
	C214.104584,524.739990 214.983002,523.452271 216.208984,521.655151 
	C217.571045,524.261230 218.671875,526.367493 219.996613,528.753418 
z"/>
<path fill="#527DEC" opacity="1.000000" stroke="none" 
	d="
M185.728241,528.765259 
	C183.284805,531.483093 180.626022,532.725403 178.113373,528.423889 
	C179.285233,526.090332 180.430450,524.153809 181.966110,521.557007 
	C183.325790,524.250610 184.404999,526.388611 185.728241,528.765259 
z"/>
</svg>